<svg width="157" height="58" viewBox="0 0 157 58" fill="none" xmlns="http://www.w3.org/2000/svg">
<path d="M-0.00499999 38.497H3.187V7.603H-0.00499999V3.1H27.754V11.878H23.251V7.603H7.918V20.656H25.531V25.159H7.918V38.497H13.789V43H-0.00499999V38.497ZM27.7335 32.341C27.7335 30.859 28.0185 29.434 28.5885 28.066C29.1965 26.698 30.0135 25.501 31.0395 24.475C32.0655 23.449 33.2815 22.632 34.6875 22.024C36.0935 21.416 37.5945 21.112 39.1905 21.112C40.2165 21.112 41.1665 21.264 42.0405 21.568C42.9145 21.872 43.6745 22.214 44.3205 22.594C44.9665 22.936 45.4795 23.278 45.8595 23.62C46.2395 23.962 46.4295 24.19 46.4295 24.304C46.4295 23.886 46.4675 23.449 46.5435 22.993C46.6195 22.537 46.6575 22.081 46.6575 21.625H50.5905V38.497H54.9225V43H46.4295V41.86V40.72C46.3915 40.834 46.2015 41.043 45.8595 41.347C45.5175 41.651 45.0235 41.974 44.3775 42.316C43.7695 42.62 43.0285 42.886 42.1545 43.114C41.2805 43.38 40.2925 43.513 39.1905 43.513C37.5945 43.513 36.0935 43.228 34.6875 42.658C33.2815 42.05 32.0655 41.233 31.0395 40.207C30.0135 39.181 29.1965 38.003 28.5885 36.673C28.0185 35.305 27.7335 33.861 27.7335 32.341ZM32.5215 32.284C32.5215 34.146 33.1295 35.723 34.3455 37.015C35.5995 38.269 37.2145 38.896 39.1905 38.896C41.1665 38.896 42.7625 38.269 43.9785 37.015C45.2325 35.723 45.8595 34.146 45.8595 32.284C45.8595 30.384 45.2325 28.826 43.9785 27.61C42.7625 26.356 41.1665 25.729 39.1905 25.729C37.2145 25.729 35.5995 26.356 34.3455 27.61C33.1295 28.826 32.5215 30.384 32.5215 32.284ZM87.8614 38.497H92.1934V29.662C92.1174 28.636 91.7374 27.762 91.0534 27.04C90.4074 26.28 89.3624 25.862 87.9184 25.786C86.9304 25.786 85.9804 25.957 85.0684 26.299C84.1944 26.641 83.4154 27.116 82.7314 27.724C82.0474 28.332 81.4964 29.054 81.0784 29.89C80.6604 30.726 80.4514 31.638 80.4514 32.626V38.497H84.0424V43H71.3884V38.497H75.7204V29.662C75.6444 28.636 75.2644 27.762 74.5804 27.04C73.9344 26.28 72.8894 25.862 71.4454 25.786C70.4574 25.786 69.5074 25.957 68.5954 26.299C67.7214 26.641 66.9424 27.116 66.2584 27.724C65.5744 28.332 65.0234 29.054 64.6054 29.89C64.1874 30.726 63.9784 31.638 63.9784 32.626V38.497H67.5694V43H54.9154V38.497H59.2474V26.128H55.4854V21.625H63.4084V22.138C63.4844 23.05 63.5414 23.886 63.5794 24.646C63.6554 25.368 63.7314 26.185 63.8074 27.097C64.6054 25.273 65.8024 23.848 67.3984 22.822C69.0324 21.758 70.9324 21.188 73.0984 21.112C75.1884 21.112 76.8604 21.644 78.1144 22.708C79.4064 23.734 80.1664 25.102 80.3944 26.812C81.2304 25.064 82.4464 23.696 84.0424 22.708C85.6384 21.72 87.4814 21.188 89.5714 21.112C91.8134 21.112 93.5804 21.701 94.8724 22.879C96.1644 24.057 96.8484 25.596 96.9244 27.496V38.497H100.515V43H87.8614V38.497ZM100.522 38.497H104.512V26.128H100.522V21.625H109.243V38.497H113.176V43H100.522V38.497ZM103.999 13.36C103.999 12.486 104.303 11.764 104.911 11.194C105.519 10.624 106.203 10.339 106.963 10.339C107.685 10.339 108.35 10.624 108.958 11.194C109.566 11.764 109.87 12.486 109.87 13.36C109.87 14.234 109.566 14.956 108.958 15.526C108.35 16.058 107.685 16.324 106.963 16.324C106.203 16.324 105.519 16.058 104.911 15.526C104.303 14.956 103.999 14.234 103.999 13.36ZM113.176 38.497H117.508V4.753H113.746V0.249997H122.239V38.497H125.83V43H113.176V38.497ZM129.078 52.747H134.208C135.006 51.113 135.804 49.479 136.602 47.845C137.438 46.211 138.274 44.596 139.11 43C137.666 40.15 136.241 37.338 134.835 34.564C133.467 31.79 132.061 28.978 130.617 26.128H125.829V21.625H138.483V26.128H135.462C136.564 28.218 137.666 30.327 138.768 32.455C139.87 34.545 140.782 36.654 141.504 38.782C142.226 36.654 143.119 34.545 144.183 32.455C145.285 30.327 146.387 28.218 147.489 26.128H143.955V21.625H157.008V26.128H152.334C150.092 30.612 147.85 35.058 145.608 39.466C143.404 43.836 141.181 48.263 138.939 52.747H141.732V57.25H129.078V52.747Z" fill="white"/>
</svg>
