<svg width="207" height="37" viewBox="0 0 207 37" fill="none" xmlns="http://www.w3.org/2000/svg">
<path d="M31.2 21.8C31.2 26.3 29.9167 29.8833 27.35 32.55C24.8167 35.1833 20.9667 36.5 15.8 36.5C10.8667 36.5 7.1 35.25 4.5 32.75C1.93333 30.2167 0.65 26.6333 0.65 22V0.299998H10.35V21.25C10.35 23.7833 10.8167 25.6167 11.75 26.75C12.7167 27.8833 14.1167 28.45 15.95 28.45C17.9167 28.45 19.3333 27.8833 20.2 26.75C21.1 25.5833 21.55 23.7333 21.55 21.2V0.299998H31.2V21.8ZM57.8918 0.299998C67.5918 0.299998 72.4418 3.81666 72.4418 10.85C72.4418 13.0167 71.8918 14.9 70.7918 16.5C69.7251 18.0667 68.2585 19.3833 66.3918 20.45L76.7918 36H65.8418L58.2918 23H55.8418V36H46.1918V0.299998H57.8918ZM57.7418 7.6H55.8418V15.75H57.6418C59.1085 15.75 60.3085 15.4333 61.2418 14.8C62.2085 14.1333 62.6918 12.9667 62.6918 11.3C62.6918 10.1333 62.3085 9.23333 61.5418 8.6C60.7751 7.93333 59.5085 7.6 57.7418 7.6ZM99.9797 0.299998C105.146 0.299998 108.83 1.06666 111.03 2.6C113.23 4.13333 114.33 6.33333 114.33 9.2C114.33 10.7667 114.046 12.1 113.48 13.2C112.913 14.2667 112.196 15.1167 111.33 15.75C110.496 16.3833 109.63 16.8167 108.73 17.05V17.3C109.696 17.5333 110.663 17.9333 111.63 18.5C112.596 19.0667 113.396 19.9167 114.03 21.05C114.696 22.15 115.03 23.65 115.03 25.55C115.03 28.7833 113.813 31.3333 111.38 33.2C108.946 35.0667 105.63 36 101.43 36H87.5297V0.299998H99.9797ZM100.08 14C101.68 14 102.796 13.6667 103.43 13C104.096 12.3333 104.43 11.5333 104.43 10.6C104.43 8.6 102.913 7.6 99.8797 7.6H97.1797V14H100.08ZM97.1797 21.05V28.55H100.58C102.246 28.55 103.413 28.2 104.08 27.5C104.746 26.7667 105.08 25.85 105.08 24.75C105.08 23.7833 104.746 22.9333 104.08 22.2C103.413 21.4333 102.18 21.05 100.38 21.05H97.1797ZM150.621 36L148.871 29.3H137.271L135.471 36H124.871L136.521 0.15H149.371L161.171 36H150.621ZM145.321 15.55C145.154 14.9167 144.921 14.0167 144.621 12.85C144.321 11.65 144.021 10.4167 143.721 9.15C143.421 7.88333 143.188 6.85 143.021 6.05C142.888 6.85 142.671 7.85 142.371 9.05C142.104 10.25 141.821 11.4333 141.521 12.6C141.254 13.7667 141.021 14.75 140.821 15.55L139.271 21.4H146.871L145.321 15.55ZM206.5 36H193.85L180.8 10.85H180.6C180.667 11.6167 180.734 12.55 180.8 13.65C180.867 14.7167 180.917 15.8 180.95 16.9C181.017 18 181.05 19 181.05 19.9V36H172.5V0.299998H185.1L198.1 25.1H198.25C198.217 24.3333 198.167 23.4333 198.1 22.4C198.034 21.3667 197.984 20.3167 197.95 19.25C197.917 18.1833 197.9 17.25 197.9 16.45V0.299998H206.5V36Z" fill="white"/>
</svg>
