<svg width="24" height="24" viewBox="0 0 24 24" fill="none" xmlns="http://www.w3.org/2000/svg">
<path fill-rule="evenodd" clip-rule="evenodd" d="M2.75 3.75C3.16421 3.75 3.5 4.08579 3.5 4.5V12.5H21.25C21.6642 12.5 22 12.8358 22 13.25V19.5C22 19.9142 21.6642 20.25 21.25 20.25C20.8358 20.25 20.5 19.9142 20.5 19.5V17.75H3.5V19.5C3.5 19.9142 3.16421 20.25 2.75 20.25C2.33579 20.25 2 19.9142 2 19.5V4.5C2 4.08579 2.33579 3.75 2.75 3.75ZM3.5 14V16.25H20.5V14H3.5Z" fill="white"/>
<path fill-rule="evenodd" clip-rule="evenodd" d="M4.5 8.875C4.5 7.42525 5.67525 6.25 7.125 6.25C8.57475 6.25 9.75 7.42525 9.75 8.875C9.75 10.3247 8.57475 11.5 7.125 11.5C5.67525 11.5 4.5 10.3247 4.5 8.875ZM7.125 7.75C6.50368 7.75 6 8.25368 6 8.875C6 9.49632 6.50368 10 7.125 10C7.74632 10 8.25 9.49632 8.25 8.875C8.25 8.25368 7.74632 7.75 7.125 7.75Z" fill="white"/>
<path fill-rule="evenodd" clip-rule="evenodd" d="M11.5 6.25C11.0858 6.25 10.75 6.58579 10.75 7V10.75C10.75 11.1642 11.0858 11.5 11.5 11.5H21.25C21.6642 11.5 22 11.1642 22 10.75V9.5C22 7.70507 20.5449 6.25 18.75 6.25H11.5ZM20.5 10H12.25V7.75H18.75C19.7165 7.75 20.5 8.5335 20.5 9.5V10Z" fill="white"/>
</svg>
