<svg width="20" height="20" viewBox="0 0 20 20" fill="none" xmlns="http://www.w3.org/2000/svg">
<path d="M0.0019989 10.002C0.00316244 14.9214 3.5804 19.1101 8.439 19.881V12.892H5.902V10.002H8.442V7.80204C8.32845 6.75958 8.68452 5.72064 9.41364 4.96698C10.1428 4.21332 11.1694 3.82306 12.215 3.90204C12.9655 3.91417 13.7142 3.98101 14.455 4.10205V6.56104H13.191C12.7558 6.50405 12.3184 6.64777 12.0018 6.95171C11.6852 7.25566 11.5238 7.68693 11.563 8.12404V10.002H14.334L13.891 12.893H11.563V19.881C16.8175 19.0506 20.5021 14.2518 19.9475 8.96112C19.3929 3.67041 14.7933 -0.260027 9.48082 0.0172227C4.16836 0.294472 0.00284338 4.68235 0.0019989 10.002Z" fill="#2B2B2B"/>
</svg>
