<svg width="24" height="24" viewBox="0 0 24 24" fill="none" xmlns="http://www.w3.org/2000/svg">
<path fill-rule="evenodd" clip-rule="evenodd" d="M6.75 2.2501C6.75 1.83588 7.08579 1.5001 7.5 1.5001C7.91421 1.5001 8.25 1.83588 8.25 2.2501V8.2501C8.25 8.66431 7.91421 9.0001 7.5 9.0001C7.08579 9.0001 6.75 8.66431 6.75 8.2501V2.2501ZM10.5 8.2501C10.5 9.90695 9.15685 11.2501 7.5 11.2501C5.84315 11.2501 4.5 9.90695 4.5 8.2501V2.2501C4.5 1.83588 4.16421 1.5001 3.75 1.5001C3.33579 1.5001 3 1.83588 3 2.2501V8.2501C3.00222 10.4442 4.58655 12.3169 6.75 12.6826V21.7501C6.75 22.1643 7.08579 22.5001 7.5 22.5001C7.91421 22.5001 8.25 22.1643 8.25 21.7501V12.6826C10.4135 12.3169 11.9978 10.4442 12 8.2501V2.2501C12 1.83588 11.6642 1.5001 11.25 1.5001C10.8358 1.5001 10.5 1.83588 10.5 2.2501V8.2501ZM16.5 1.5001H15.75V21.7501C15.75 22.1643 16.0858 22.5001 16.5 22.5001C16.9142 22.5001 17.25 22.1643 17.25 21.7501V15.0001H19.5C20.3284 15.0001 21 14.3285 21 13.5001V6.0001C21.0469 4.79286 20.5879 3.62081 19.7336 2.76652C18.8793 1.91223 17.7072 1.4532 16.5 1.5001ZM19.5 13.5001H17.25V3.0676C19.41 3.4876 19.5 5.7226 19.5 6.0001V13.5001Z" fill="white"/>
</svg>
