<svg width="19" height="19" viewBox="0 0 19 19" fill="none" xmlns="http://www.w3.org/2000/svg">
<path d="M9.002 18.0409C6.542 18.0409 6.252 18.0279 5.292 17.9859C4.54337 17.9613 3.80443 17.8091 3.107 17.5359C1.90031 17.0663 0.946139 16.1117 0.476999 14.9049C0.214305 14.2049 0.0726168 13.4654 0.0579989 12.7179C0.0019989 11.7599 0.0019989 11.4459 0.0019989 9.00488C0.0019989 6.53788 0.0149989 6.24988 0.0579989 5.29488C0.0729365 4.5484 0.21462 3.80989 0.476999 3.11088C0.94563 1.90241 1.90135 0.947055 3.11 0.478883C3.80864 0.215085 4.54735 0.0730271 5.294 0.0588828C6.249 0.00488281 6.563 0.00488281 9.002 0.00488281C11.482 0.00488281 11.767 0.0178828 12.712 0.0588828C13.4606 0.0731494 14.2012 0.215192 14.902 0.478883C16.1103 0.947586 17.0658 1.90276 17.535 3.11088C17.8021 3.82008 17.9446 4.57013 17.956 5.32788C18.012 6.28588 18.012 6.59888 18.012 9.03888C18.012 11.4789 17.998 11.7989 17.956 12.7459C17.9411 13.4941 17.7991 14.2343 17.536 14.9349C17.0657 16.1426 16.1101 17.0975 14.902 17.5669C14.2022 17.8291 13.4631 17.9707 12.716 17.9859C11.761 18.0409 11.448 18.0409 9.002 18.0409ZM8.968 1.58788C6.522 1.58788 6.268 1.59988 5.313 1.64288C4.74298 1.65043 4.17848 1.75562 3.644 1.95388C2.85475 2.25589 2.23023 2.87787 1.925 3.66588C1.72521 4.20618 1.62001 4.77686 1.614 5.35288C1.561 6.32188 1.561 6.57588 1.561 9.00488C1.561 11.4049 1.57 11.6959 1.614 12.6589C1.62295 13.2291 1.72809 13.7937 1.925 14.3289C2.23067 15.1164 2.85509 15.7379 3.644 16.0399C4.17811 16.2395 4.74285 16.3447 5.313 16.3509C6.281 16.4069 6.536 16.4069 8.968 16.4069C11.421 16.4069 11.675 16.3949 12.622 16.3509C13.1924 16.3439 13.7573 16.2387 14.292 16.0399C15.0765 15.7353 15.6969 15.1152 16.002 14.3309C16.2014 13.7901 16.3066 13.2192 16.313 12.6429H16.324C16.367 11.6869 16.367 11.4319 16.367 8.98888C16.367 6.54588 16.356 6.28888 16.313 5.33388C16.304 4.76433 16.1989 4.20039 16.002 3.66588C15.6976 2.88046 15.0771 2.25918 14.292 1.95388C13.7574 1.75462 13.1924 1.6494 12.622 1.64288C11.655 1.58788 11.402 1.58788 8.968 1.58788ZM9.002 13.6239C7.13199 13.6251 5.44542 12.4996 4.72886 10.7723C4.0123 9.04506 4.40691 7.05621 5.72863 5.73334C7.05036 4.41047 9.03886 4.01415 10.7668 4.72921C12.4947 5.44428 13.6216 7.12987 13.622 8.99988C13.6192 11.5509 11.5531 13.6189 9.002 13.6239ZM9.002 5.99788C7.34514 5.99788 6.002 7.34103 6.002 8.99788C6.002 10.6547 7.34514 11.9979 9.002 11.9979C10.6589 11.9979 12.002 10.6547 12.002 8.99788C11.9981 7.34263 10.6573 6.00173 9.002 5.99788ZM13.802 5.28489C13.2074 5.28268 12.7269 4.79947 12.728 4.20489C12.7291 3.61031 13.2114 3.12889 13.806 3.12889C14.4006 3.12889 14.8829 3.6103 14.884 4.20488C14.8843 4.49174 14.7703 4.76691 14.5673 4.96956C14.3642 5.17222 14.0889 5.28568 13.802 5.28489Z" fill="#2B2B2B"/>
</svg>
