<svg width="16" height="16" viewBox="0 0 16 16" fill="none" xmlns="http://www.w3.org/2000/svg">
<path fill-rule="evenodd" clip-rule="evenodd" d="M11.6667 6.66667C11.6667 7.1796 11.4594 7.84249 11.0533 8.611C10.6558 9.36343 10.1138 10.132 9.55251 10.8336C8.99391 11.5319 8.43264 12.1435 8.00981 12.5814L8.00004 12.5916L7.99028 12.5814C7.56744 12.1435 7.00617 11.5319 6.44758 10.8336C5.88629 10.132 5.34424 9.36343 4.94673 8.611C4.54073 7.84249 4.33337 7.1796 4.33337 6.66667C4.33337 5.41175 4.76307 4.5201 5.38413 3.93789C6.0154 3.34611 6.92444 3 8.00004 3C9.07565 3 9.98468 3.34611 10.616 3.93789C11.237 4.5201 11.6667 5.41175 11.6667 6.66667ZM12.6667 6.66667C12.6667 9.66667 8.00004 14 8.00004 14C8.00004 14 3.33337 9.66667 3.33337 6.66667C3.33337 3.66667 5.42271 2 8.00004 2C10.5774 2 12.6667 3.66667 12.6667 6.66667ZM8.00004 8C8.73642 8 9.33337 7.40305 9.33337 6.66667C9.33337 5.93029 8.73642 5.33333 8.00004 5.33333C7.26366 5.33333 6.66671 5.93029 6.66671 6.66667C6.66671 7.40305 7.26366 8 8.00004 8Z" fill="white"/>
</svg>
