<svg width="95" height="16" viewBox="0 0 95 16" fill="none" xmlns="http://www.w3.org/2000/svg">
<g clip-path="url(#clip0_26_190)">
<path d="M0.0561218 0.38269H2.97184V11.59L16.0379 0.38269H18.4434V15.5991H15.4183V4.3918L2.46159 15.5991H0.0561218V0.38269Z" fill="#3D63A9"/>
<path d="M28.6848 0C23.4365 0 19.1723 3.58998 19.1723 8C19.1723 12.4282 23.4365 16 28.6848 16C33.9331 16 38.1973 12.41 38.1973 8C38.1973 3.58998 33.9331 0 28.6848 0ZM28.6848 13.3759C25.0948 13.3759 22.1791 10.9704 22.1791 8C22.1791 5.02961 25.0948 2.62415 28.6848 2.62415C32.2748 2.62415 35.1905 5.02961 35.1905 8C35.1905 10.9704 32.293 13.3759 28.6848 13.3759Z" fill="#ADC22F"/>
<path d="M38.8169 15.836H41.7327V3.58995L48.2201 6.39633L54.7076 3.58995V15.836H57.6233V0.109314H55.4365L48.2201 2.97036L41.0402 0.109314H38.8169V15.836Z" fill="#AA2275"/>
<path d="M58.006 15.836H61.2862L67.6643 3.73574L74.006 15.836H77.3226L68.9217 0.109314H66.4251L58.006 15.836Z" fill="#17A3AB"/>
<path d="M86.1244 0.109314H77.4866V15.836H86.1244C86.1244 15.836 94.7258 15.2528 94.7258 7.99997C94.7258 0.747128 86.1244 0.109314 86.1244 0.109314ZM86.1062 13.3029H80.5117V2.62412H86.1062C86.1062 2.62412 91.6825 3.06148 91.6825 7.98175C91.7008 12.902 86.1062 13.3029 86.1062 13.3029Z" fill="#3D63A9"/>
</g>
<defs>
<clipPath id="clip0_26_190">
<rect width="94.6697" height="16" fill="white" transform="translate(0.0561218)"/>
</clipPath>
</defs>
</svg>
