<svg width="83" height="30" viewBox="0 0 83 30" fill="none" xmlns="http://www.w3.org/2000/svg">
<path d="M0 20.13H1.68V3.87H0V1.5H14.61V6.12H12.24V3.87H4.17V10.74H13.44V13.11H4.17V20.13H7.26V22.5H0V20.13Z" fill="#2B2B2B"/>
<path d="M14.5992 16.89C14.5992 16.11 14.7492 15.36 15.0492 14.64C15.3692 13.92 15.7992 13.29 16.3392 12.75C16.8792 12.21 17.5192 11.78 18.2592 11.46C18.9992 11.14 19.7892 10.98 20.6292 10.98C21.1692 10.98 21.6692 11.06 22.1292 11.22C22.5892 11.38 22.9892 11.56 23.3292 11.76C23.6692 11.94 23.9392 12.12 24.1392 12.3C24.3392 12.48 24.4392 12.6 24.4392 12.66C24.4392 12.44 24.4592 12.21 24.4992 11.97C24.5392 11.73 24.5592 11.49 24.5592 11.25H26.6292V20.13H28.9092V22.5H24.4392V21.9V21.3C24.4192 21.36 24.3192 21.47 24.1392 21.63C23.9592 21.79 23.6992 21.96 23.3592 22.14C23.0392 22.3 22.6492 22.44 22.1892 22.56C21.7292 22.7 21.2092 22.77 20.6292 22.77C19.7892 22.77 18.9992 22.62 18.2592 22.32C17.5192 22 16.8792 21.57 16.3392 21.03C15.7992 20.49 15.3692 19.87 15.0492 19.17C14.7492 18.45 14.5992 17.69 14.5992 16.89ZM17.1192 16.86C17.1192 17.84 17.4392 18.67 18.0792 19.35C18.7392 20.01 19.5892 20.34 20.6292 20.34C21.6692 20.34 22.5092 20.01 23.1492 19.35C23.8092 18.67 24.1392 17.84 24.1392 16.86C24.1392 15.86 23.8092 15.04 23.1492 14.4C22.5092 13.74 21.6692 13.41 20.6292 13.41C19.5892 13.41 18.7392 13.74 18.0792 14.4C17.4392 15.04 17.1192 15.86 17.1192 16.86Z" fill="#2B2B2B"/>
<path d="M46.2455 20.13H48.5255V15.48C48.4855 14.94 48.2855 14.48 47.9255 14.1C47.5855 13.7 47.0355 13.48 46.2755 13.44C45.7555 13.44 45.2555 13.53 44.7755 13.71C44.3155 13.89 43.9055 14.14 43.5455 14.46C43.1855 14.78 42.8955 15.16 42.6755 15.6C42.4555 16.04 42.3455 16.52 42.3455 17.04V20.13H44.2355V22.5H37.5755V20.13H39.8555V15.48C39.8155 14.94 39.6155 14.48 39.2555 14.1C38.9155 13.7 38.3655 13.48 37.6055 13.44C37.0855 13.44 36.5855 13.53 36.1055 13.71C35.6455 13.89 35.2355 14.14 34.8755 14.46C34.5155 14.78 34.2255 15.16 34.0055 15.6C33.7855 16.04 33.6755 16.52 33.6755 17.04V20.13H35.5655V22.5H28.9055V20.13H31.1855V13.62H29.2055V11.25H33.3755V11.52C33.4155 12 33.4455 12.44 33.4655 12.84C33.5055 13.22 33.5455 13.65 33.5855 14.13C34.0055 13.17 34.6355 12.42 35.4755 11.88C36.3355 11.32 37.3355 11.02 38.4755 10.98C39.5755 10.98 40.4555 11.26 41.1155 11.82C41.7955 12.36 42.1955 13.08 42.3155 13.98C42.7555 13.06 43.3955 12.34 44.2355 11.82C45.0755 11.3 46.0455 11.02 47.1455 10.98C48.3255 10.98 49.2555 11.29 49.9355 11.91C50.6155 12.53 50.9755 13.34 51.0155 14.34V20.13H52.9055V22.5H46.2455V20.13Z" fill="#2B2B2B"/>
<path d="M52.909 20.13H55.009V13.62H52.909V11.25H57.499V20.13H59.569V22.5H52.909V20.13ZM54.739 6.9C54.739 6.44 54.899 6.06 55.219 5.76C55.539 5.46 55.899 5.31 56.299 5.31C56.679 5.31 57.029 5.46 57.349 5.76C57.669 6.06 57.829 6.44 57.829 6.9C57.829 7.36 57.669 7.74 57.349 8.04C57.029 8.32 56.679 8.46 56.299 8.46C55.899 8.46 55.539 8.32 55.219 8.04C54.899 7.74 54.739 7.36 54.739 6.9Z" fill="#2B2B2B"/>
<path d="M59.5687 20.13H61.8487V2.37H59.8687V0H64.3387V20.13H66.2287V22.5H59.5687V20.13Z" fill="#2B2B2B"/>
<path d="M67.9385 27.63H70.6385C71.0585 26.77 71.4785 25.91 71.8985 25.05C72.3385 24.19 72.7785 23.34 73.2185 22.5C72.4585 21 71.7085 19.52 70.9685 18.06C70.2485 16.6 69.5085 15.12 68.7485 13.62H66.2285V11.25H72.8885V13.62H71.2985C71.8785 14.72 72.4585 15.83 73.0385 16.95C73.6185 18.05 74.0985 19.16 74.4785 20.28C74.8585 19.16 75.3285 18.05 75.8885 16.95C76.4685 15.83 77.0485 14.72 77.6285 13.62H75.7685V11.25H82.6385V13.62H80.1785C78.9985 15.98 77.8185 18.32 76.6385 20.64C75.4785 22.94 74.3085 25.27 73.1285 27.63H74.5985V30H67.9385V27.63Z" fill="#2B2B2B"/>
</svg>
