<svg width="114" height="20" viewBox="0 0 114 20" fill="none" xmlns="http://www.w3.org/2000/svg">
<path d="M16.7816 11.912C16.7816 14.3879 16.0766 16.3595 14.6667 17.8267C13.2751 19.2756 11.1603 20 8.32214 20C5.61218 20 3.54309 19.3122 2.11487 17.9367C0.704956 16.5429 0 14.5713 0 12.022V0.0825297H5.32837V11.6094C5.32837 13.0032 5.58471 14.0119 6.09741 14.6355C6.62841 15.2591 7.39746 15.5708 8.40453 15.5708C9.48486 15.5708 10.2631 15.2591 10.7391 14.6355C11.2335 13.9936 11.4807 12.9757 11.4807 11.5818V0.0825297H16.7816V11.912Z" fill="#2B2B2B"/>
<path d="M31.4438 0.0825297C36.7722 0.0825297 39.4364 2.01742 39.4364 5.88721C39.4364 7.07932 39.1343 8.11554 38.53 8.99587C37.9441 9.85786 37.1384 10.5823 36.113 11.1692L41.8259 19.7249H35.8109L31.6636 12.5722H30.3177V19.7249H25.0168V0.0825297H31.4438ZM31.3614 4.09904H30.3177V8.58322H31.3065C32.1122 8.58322 32.7713 8.40899 33.284 8.06052C33.815 7.69372 34.0806 7.05181 34.0806 6.1348C34.0806 5.49289 33.87 4.99771 33.4488 4.64924C33.0277 4.28244 32.3319 4.09904 31.3614 4.09904Z" fill="#2B2B2B"/>
<path d="M54.5634 0.0825297C57.4015 0.0825297 59.4248 0.504355 60.6333 1.348C61.8418 2.19165 62.4461 3.40211 62.4461 4.97937C62.4461 5.84136 62.2904 6.57497 61.9792 7.18019C61.6679 7.76708 61.2742 8.23475 60.7981 8.58322C60.3404 8.93168 59.8643 9.17011 59.3699 9.29849V9.43604C59.9009 9.56442 60.4319 9.7845 60.9629 10.0963C61.4939 10.4081 61.9334 10.8757 62.2813 11.4993C62.6475 12.1045 62.8306 12.9298 62.8306 13.9752C62.8306 15.7542 62.1623 17.1573 60.8256 18.1843C59.4889 19.2114 57.667 19.7249 55.3599 19.7249H47.7244V0.0825297H54.5634ZM54.6183 7.62036C55.4972 7.62036 56.1106 7.43696 56.4585 7.07015C56.8247 6.70335 57.0078 6.26318 57.0078 5.74966C57.0078 4.64924 56.1747 4.09904 54.5084 4.09904H53.0253V7.62036H54.6183ZM53.0253 11.4993V15.6259H54.893C55.8085 15.6259 56.4494 15.4333 56.8156 15.0481C57.1818 14.6447 57.3649 14.1403 57.3649 13.5351C57.3649 13.0032 57.1818 12.5355 56.8156 12.132C56.4494 11.7102 55.7719 11.4993 54.7831 11.4993H53.0253Z" fill="#2B2B2B"/>
<path d="M82.3815 19.7249L81.4202 16.0385H75.0481L74.0594 19.7249H68.2366L74.6362 0H81.6949L88.1768 19.7249H82.3815ZM79.4701 8.47318C79.3786 8.12471 79.2504 7.62953 79.0856 6.98762C78.9208 6.32737 78.756 5.64879 78.5912 4.95186C78.4265 4.25493 78.2983 3.68638 78.2067 3.24622C78.1335 3.68638 78.0145 4.23659 77.8497 4.89684C77.7032 5.55708 77.5475 6.20816 77.3827 6.85007C77.2363 7.49198 77.1081 8.03301 76.9982 8.47318L76.1468 11.6919H80.3216L79.4701 8.47318Z" fill="#2B2B2B"/>
<path d="M113.077 19.7249H106.128L98.9595 5.88721H98.8496C98.8863 6.30903 98.9229 6.82256 98.9595 7.42778C98.9961 8.01467 99.0236 8.61073 99.0419 9.21596C99.0785 9.82118 99.0968 10.3714 99.0968 10.8666V19.7249H94.4002V0.0825297H101.322L108.463 13.7276H108.545C108.527 13.3058 108.499 12.8106 108.463 12.2421C108.426 11.6735 108.399 11.0958 108.38 10.5089C108.362 9.92206 108.353 9.40853 108.353 8.96836V0.0825297H113.077V19.7249Z" fill="#2B2B2B"/>
</svg>
